<?xml version="1.0" encoding="utf-8"?>
<!-- Generator: Adobe Illustrator 16.0.0, SVG Export Plug-In . SVG Version: 6.00 Build 0)  -->
<!DOCTYPE svg PUBLIC "-//W3C//DTD SVG 1.1//EN" "http://www.w3.org/Graphics/SVG/1.1/DTD/svg11.dtd">
<svg version="1.1" xmlns="http://www.w3.org/2000/svg" xmlns:xlink="http://www.w3.org/1999/xlink" x="0px" y="0px" width="25px"
	 height="25px" viewBox="0 0 25 25" enable-background="new 0 0 25 25" xml:space="preserve">
<g id="Layer_1">
	<g>
		<path fill="#FFFFFF" d="M1.586,7.127V1.67h5.456v5.457H1.586L1.586,7.127z M9.77,7.127V1.67h5.455v5.457H9.77L9.77,7.127z
			 M17.953,7.127V1.67h5.457v5.457H17.953L17.953,7.127z M1.586,15.31V9.855h5.456v5.455H1.586L1.586,15.31z M9.77,15.31V9.855
			h5.455v5.455H9.77L9.77,15.31z M17.953,15.31V9.855h5.457v5.455H17.953L17.953,15.31z M1.586,23.494v-5.456h5.456v5.456H1.586
			L1.586,23.494z M9.77,23.494v-5.456h5.455v5.456H9.77L9.77,23.494z M17.953,23.494v-5.456h5.457v5.456H17.953L17.953,23.494z"/>
	</g>
</g>
<g id="Creative_Commons_License" display="none">
</g>
</svg>
