<?xml version="1.0" encoding="utf-8"?>
<!-- Generator: Adobe Illustrator 16.0.0, SVG Export Plug-In . SVG Version: 6.00 Build 0)  -->
<!DOCTYPE svg PUBLIC "-//W3C//DTD SVG 1.1//EN" "http://www.w3.org/Graphics/SVG/1.1/DTD/svg11.dtd">
<svg version="1.1" id="Layer_1" xmlns="http://www.w3.org/2000/svg" xmlns:xlink="http://www.w3.org/1999/xlink" x="0px" y="0px"
	 width="177.975px" height="177.976px" viewBox="0 0 177.975 177.976" enable-background="new 0 0 177.975 177.976"
	 xml:space="preserve">
<g>
	<path fill="#FFFFFF" d="M177.975,177.976H0V0h177.975V177.976z M7.422,170.555h163.133V7.421H7.422V170.555z"/>
</g>
<g>
	<path fill="#FFFFFF" d="M78.377,99.184V18.826c0-3.509-2.73-6.235-6.234-6.235c-3.508,0-6.234,2.727-6.234,6.235v90.295
		l8.963-7.201L78.377,99.184z"/>
	<line fill="#FFFFFF" x1="89.855" y1="107.958" x2="30.289" y2="156.088"/>
	<g>
		<path fill="#FFFFFF" d="M31.813,154.768l0.916-0.749l-1.02,0.824C31.742,154.812,31.777,154.799,31.813,154.768z"/>
		<path fill="#FFFFFF" d="M30.811,155.564l0.898-0.722c-0.238,0.197-0.473,0.349-0.711,0.499L30.811,155.564z"/>
		<polygon fill="#FFFFFF" points="77.785,117.656 77.785,117.164 65.908,126.882 32.729,154.019 89.818,107.986 89.818,107.986 		
			"/>
		<path fill="#FFFFFF" d="M135.066,145.506l-34.68-44.615l31.951-25.515c1.947-1.562,2.531-3.509,2.531-5.069
			c0-3.503-2.727-6.229-6.234-6.229c-1.166,0-2.729,0.19-4.283,1.559L90.254,93.518l-24.346,18.385l-0.002,0.008l-16.408,12.616
			l-25.672,20.501c-1.951,1.557-2.533,3.506-2.533,5.066c0,3.505,2.727,6.231,6.236,6.231c0.963,0,2.195-0.174,3.469-0.983
			c0.238-0.15,0.473-0.302,0.711-0.499l1.02-0.824l33.18-27.137l11.877-9.718v0.492l12.033-9.67l2.5,3.146l32.42,41.58
			c1.563,1.948,3.316,2.921,5.457,2.921c3.508,0,6.234-2.725,6.234-6.23C136.43,148.229,136.234,146.869,135.066,145.506z"/>
	</g>
	<path fill="#FFFFFF" d="M78.459,138.989h-0.008l-0.045-17.963v-0.694l-12.381,10.316v8.341H66.02v10.582
		c0,3.511,2.727,6.235,6.234,6.235c3.504,0,6.234-2.725,6.234-6.235L78.459,138.989z"/>
</g>
</svg>
